<svg xmlns="http://www.w3.org/2000/svg" width="13" height="8" viewBox="0 0 13 8" fill="none"><div xmlns="" id="in-page-channel-node-id" data-channel-name="in_page_channel_ov7Fok"/>
<path d="M6.38867 7.89258C6.1084 7.89258 5.87598 7.7832 5.65039 7.56445L0.509766 2.30078C0.338867 2.12305 0.243164 1.91113 0.243164 1.6582C0.243164 1.14551 0.65332 0.728516 1.15918 0.728516C1.41895 0.728516 1.65137 0.837891 1.83594 1.02246L6.39551 5.69824L10.9414 1.02246C11.126 0.837891 11.3652 0.728516 11.6113 0.728516C12.124 0.728516 12.5342 1.14551 12.5342 1.6582C12.5342 1.91113 12.4453 2.12305 12.2676 2.30078L7.12695 7.55762C6.9082 7.7832 6.66895 7.89258 6.38867 7.89258Z" fill="white"/>
</svg>