<svg xmlns="http://www.w3.org/2000/svg" xmlns:xlink="http://www.w3.org/1999/xlink" viewBox="0 0 512 512" width="512" height="512" preserveAspectRatio="xMidYMid meet" style="width: 100%; height: 100%; transform: translate3d(0px, 0px, 0px); content-visibility: visible;"><defs><clipPath id="__lottie_element_2"><rect width="512" height="512" x="0" y="0"/></clipPath><linearGradient id="__lottie_element_6" spreadMethod="pad" gradientUnits="userSpaceOnUse" x1="-86" y1="167" x2="-98.1259994506836" y2="-48.242000579833984"><stop offset="0%" stop-color="rgb(249,208,33)"/><stop offset="50%" stop-color="rgb(249,184,17)"/><stop offset="100%" stop-color="rgb(249,159,0)"/><stop offset="100%" stop-color="rgb(252,207,128)"/><stop offset="100%" stop-color="rgb(255,255,255)"/></linearGradient><linearGradient id="__lottie_element_25" spreadMethod="pad" gradientUnits="userSpaceOnUse" x1="103.08861541748047" y1="-79.11742401123047" x2="30" y2="-226.01100158691406"><stop offset="27%" stop-color="rgb(255,255,255)" stop-opacity="0"/><stop offset="74%" stop-color="rgb(255,255,255)" stop-opacity="0.5"/><stop offset="100%" stop-color="rgb(255,255,255)" stop-opacity="1"/></linearGradient><linearGradient id="__lottie_element_26" spreadMethod="pad" gradientUnits="userSpaceOnUse" x1="-94" y1="-70" x2="-143.75999450683594" y2="-170.5679931640625"><stop offset="27%" stop-color="rgb(255,255,255)" stop-opacity="0"/><stop offset="74%" stop-color="rgb(255,255,255)" stop-opacity="0.5"/><stop offset="100%" stop-color="rgb(255,255,255)" stop-opacity="1"/></linearGradient></defs><g clip-path="url(#__lottie_element_2)"><g transform="matrix(1,0,0,1,256,256)" opacity="1" style="display: block;"><g opacity="1" transform="matrix(1,0,0,1,0,0)"><path fill="rgb(255,237,105)" fill-opacity="1" d=" M-4.8063178062438965,-94.41586303710938 C-4.8063178062438965,-94.41586303710938 -185.18295288085938,-20.22344970703125 -185.18295288085938,-20.22344970703125 C-185.18295288085938,-20.22344970703125 1.700605034828186,47.84018325805664 1.700605034828186,47.84018325805664 C1.700605034828186,47.84018325805664 188.42115783691406,-21.5831298828125 188.42115783691406,-21.5831298828125 C188.42115783691406,-21.5831298828125 -4.8063178062438965,-94.41586303710938 -4.8063178062438965,-94.41586303710938z"/><path stroke-linecap="round" stroke-linejoin="round" fill-opacity="0" stroke="rgb(234,130,6)" stroke-opacity="1" stroke-width="9" d=" M-4.8063178062438965,-94.41586303710938 C-4.8063178062438965,-94.41586303710938 -185.18295288085938,-20.22344970703125 -185.18295288085938,-20.22344970703125 C-185.18295288085938,-20.22344970703125 1.700605034828186,47.84018325805664 1.700605034828186,47.84018325805664 C1.700605034828186,47.84018325805664 188.42115783691406,-21.5831298828125 188.42115783691406,-21.5831298828125 C188.42115783691406,-21.5831298828125 -4.8063178062438965,-94.41586303710938 -4.8063178062438965,-94.41586303710938z"/></g><g opacity="1" transform="matrix(1,0,0,1,0,0)"><path fill="rgb(255,237,105)" fill-opacity="1" d=" M-0.9199041724205017,66.41931915283203 C-0.9199041724205017,66.41931915283203 -4.8063178062438965,-94.41586303710938 -4.8063178062438965,-94.41586303710938"/><path stroke-linecap="round" stroke-linejoin="round" fill-opacity="0" stroke="rgb(234,130,6)" stroke-opacity="1" stroke-width="9" d=" M-0.9199041724205017,66.41931915283203 C-0.9199041724205017,66.41931915283203 -4.8063178062438965,-94.41586303710938 -4.8063178062438965,-94.41586303710938"/></g><g opacity="1" transform="matrix(1,0,0,1,0,0)"><path fill="url(#__lottie_element_6)" fill-opacity="1" d=" M-170.05894470214844,154.69000244140625 C-170.05894470214844,154.69000244140625 -190.8430633544922,31.544559478759766 -185.49652099609375,-19.726449966430664 C-177.9069366455078,-15.988207817077637 -0.5120235085487366,47.63118362426758 -0.5120235085487366,47.63118362426758 C-0.5120235085487366,47.63118362426758 -0.38867899775505066,228.43128967285156 -0.38867899775505066,228.43128967285156 C-0.38867899775505066,228.43128967285156 -170.05894470214844,154.69000244140625 -170.05894470214844,154.69000244140625z"/><path stroke-linecap="round" stroke-linejoin="round" fill-opacity="0" stroke="rgb(234,130,6)" stroke-opacity="1" stroke-width="9" d=" M-170.05894470214844,154.69000244140625 C-170.05894470214844,154.69000244140625 -190.8430633544922,31.544559478759766 -185.49652099609375,-19.726449966430664 C-177.9069366455078,-15.988207817077637 -0.5120235085487366,47.63118362426758 -0.5120235085487366,47.63118362426758 C-0.5120235085487366,47.63118362426758 -0.38867899775505066,228.43128967285156 -0.38867899775505066,228.43128967285156 C-0.38867899775505066,228.43128967285156 -170.05894470214844,154.69000244140625 -170.05894470214844,154.69000244140625z"/></g><g opacity="1" transform="matrix(1,0,0,1,0,0)"><path fill="rgb(249,159,0)" fill-opacity="1" d=" M169.19554138183594,152.69000244140625 C169.19554138183594,152.69000244140625 191.9022979736328,19.808927536010742 187.3704376220703,-22.60112953186035 C176.25860595703125,-16.291908264160156 -0.5120235085487366,47.63118362426758 -0.5120235085487366,47.63118362426758 C-0.5120235085487366,47.63118362426758 -0.38867899775505066,228.43128967285156 -0.38867899775505066,228.43128967285156 C-0.38867899775505066,228.43128967285156 169.19554138183594,152.69000244140625 169.19554138183594,152.69000244140625z"/><path stroke-linecap="round" stroke-linejoin="round" fill-opacity="0" stroke="rgb(234,130,6)" stroke-opacity="1" stroke-width="9" d=" M169.19554138183594,152.69000244140625 C169.19554138183594,152.69000244140625 191.9022979736328,19.808927536010742 187.3704376220703,-22.60112953186035 C176.25860595703125,-16.291908264160156 -0.5120235085487366,47.63118362426758 -0.5120235085487366,47.63118362426758 C-0.5120235085487366,47.63118362426758 -0.38867899775505066,228.43128967285156 -0.38867899775505066,228.43128967285156 C-0.38867899775505066,228.43128967285156 169.19554138183594,152.69000244140625 169.19554138183594,152.69000244140625z"/></g></g><g transform="matrix(1,0,0,1,256,298.3592529296875)" opacity="0.54" style="display: block;"><g opacity="1" transform="matrix(1,0,0,1,0,0)"><path fill="rgb(234,130,6)" fill-opacity="1" d=" M-183.2286834716797,-4.847231388092041 C-183.2286834716797,-4.847231388092041 -182.5664825439453,-53.57162094116211 -182.5664825439453,-53.57162094116211 C-182.5664825439453,-53.57162094116211 0,40.462032318115234 0,40.462032318115234 C0,40.462032318115234 0,92.40091705322266 0,92.40091705322266 C0,92.40091705322266 -183.2286834716797,-4.847231388092041 -183.2286834716797,-4.847231388092041z"/></g><g opacity="1" transform="matrix(1,0,0,1,0,0)"><path fill="rgb(234,130,6)" fill-opacity="1" d=" M184.47445678710938,-2.0677683353424072 C184.47445678710938,-2.0677683353424072 188.22715759277344,-55.756378173828125 188.22715759277344,-55.756378173828125 C188.22715759277344,-55.756378173828125 0,40.462032318115234 0,40.462032318115234 C0,40.462032318115234 0,92.40091705322266 0,92.40091705322266 C0,92.40091705322266 184.47445678710938,-2.0677683353424072 184.47445678710938,-2.0677683353424072z"/></g></g><g transform="matrix(1,0,0,1,256,256)" opacity="1" style="display: block;"><g opacity="1" transform="matrix(1,0,0,1,0,0)"><path fill="rgb(188,4,4)" fill-opacity="1" d=" M64.94461059570312,201.28294372558594 C64.94461059570312,201.28294372558594 68.86515808105469,40.430503845214844 68.41011810302734,12.124714851379395 C68.24161529541016,1.6430518627166748 117.029052734375,-12.337911605834961 117.29412078857422,-4.927285671234131 C119.71573638916016,62.69862365722656 110.25194549560547,180.9468231201172 110.25194549560547,180.9468231201172 C110.25194549560547,180.9468231201172 64.94461059570312,201.28294372558594 64.94461059570312,201.28294372558594z"/></g><g opacity="1" transform="matrix(1,0,0,1,0,0)"><path fill="rgb(221,5,5)" fill-opacity="1" d=" M-67.4246826171875,200.96739196777344 C-67.4246826171875,200.96739196777344 -72.0195541381836,66.20262145996094 -72.0530014038086,18.718950271606445 C-72.05552673339844,14.884257316589355 -116.53829193115234,-3.2652626037597656 -117.5260009765625,1.6669502258300781 C-125.71416473388672,42.55666732788086 -110.64717102050781,181.67391967773438 -110.64717102050781,181.67391967773438 C-110.64717102050781,181.67391967773438 -67.4246826171875,200.96739196777344 -67.4246826171875,200.96739196777344z"/></g></g><g transform="matrix(1,0,0,1,256,298.3592529296875)" opacity="0.54" style="display: block;"><g opacity="1" transform="matrix(1,0,0,1,0,0)"><path fill="rgb(153,0,0)" fill-opacity="1" d=" M-120.09548950195312,-21.63736915588379 C-120.09548950195312,-21.63736915588379 -72.70166015625,1.0991935729980469 -72.70166015625,1.0991935729980469 C-72.70166015625,1.0991935729980469 -70.23912811279297,54.54092788696289 -70.23912811279297,54.54092788696289 C-70.23912811279297,54.54092788696289 -118.82012939453125,29.148500442504883 -118.82012939453125,29.148500442504883 C-118.82012939453125,29.148500442504883 -120.09548950195312,-21.63736915588379 -120.09548950195312,-21.63736915588379z"/></g><g opacity="1" transform="matrix(1,0,0,1,0,0)"><path fill="rgb(153,0,0)" fill-opacity="1" d=" M119.91962432861328,-19.439943313598633 C119.91962432861328,-19.439943313598633 68.14155578613281,5.061004161834717 68.14155578613281,5.061004161834717 C68.14155578613281,5.061004161834717 66.91934967041016,57.5450553894043 66.91934967041016,57.5450553894043 C66.91934967041016,57.5450553894043 116.67914581298828,32.5318603515625 116.7364501953125,32.18014144897461 C116.79374694824219,31.82842445373535 119.91962432861328,-19.439943313598633 119.91962432861328,-19.439943313598633z"/></g></g><g transform="matrix(1,0,0,1,256,256)" opacity="1" style="display: block;"><g opacity="1" transform="matrix(1,0,0,1,0,0)"><path stroke-linecap="round" stroke-linejoin="round" fill-opacity="0" stroke="rgb(153,0,0)" stroke-opacity="1" stroke-width="9" d=" M64.94461059570312,201.28294372558594 C64.94461059570312,201.28294372558594 68.86515808105469,40.430503845214844 68.41011810302734,12.124714851379395 C68.24161529541016,1.6430518627166748 117.029052734375,-12.337911605834961 117.29412078857422,-4.927285671234131 C119.71573638916016,62.69862365722656 110.25194549560547,180.9468231201172 110.25194549560547,180.9468231201172 C110.25194549560547,180.9468231201172 64.94461059570312,201.28294372558594 64.94461059570312,201.28294372558594z"/></g><g opacity="1" transform="matrix(1,0,0,1,0,0)"><path stroke-linecap="round" stroke-linejoin="round" fill-opacity="0" stroke="rgb(153,0,0)" stroke-opacity="1" stroke-width="9" d=" M-67.4246826171875,200.96739196777344 C-67.4246826171875,200.96739196777344 -72.0195541381836,66.20262145996094 -72.0530014038086,18.718950271606445 C-72.05552673339844,14.884257316589355 -116.53829193115234,-3.2652626037597656 -117.5260009765625,1.6669502258300781 C-125.71416473388672,42.55666732788086 -110.64717102050781,181.67391967773438 -110.64717102050781,181.67391967773438 C-110.64717102050781,181.67391967773438 -67.4246826171875,200.96739196777344 -67.4246826171875,200.96739196777344z"/></g></g><g transform="matrix(1,0,0,1,256,272.8592529296875)" opacity="1" style="display: block;"><g opacity="1" transform="matrix(1,0,0,1,0,0)"><g opacity="1" transform="matrix(1,0,0,1,0,0)"><path fill="rgb(255,237,105)" fill-opacity="1" d=" M0,-137.70692443847656 C0,-137.70692443847656 -197.93600463867188,-57.16400146484375 -197.93600463867188,-57.16400146484375 C-197.93600463867188,-57.16400146484375 0,40.462032318115234 0,40.462032318115234 C0,40.462032318115234 197.93600463867188,-57.16400146484375 197.93600463867188,-57.16400146484375 C197.93600463867188,-57.16400146484375 0,-137.70692443847656 0,-137.70692443847656z"/><path stroke-linecap="round" stroke-linejoin="round" fill-opacity="0" stroke="rgb(234,130,6)" stroke-opacity="1" stroke-width="9" d=" M0,-137.70692443847656 C0,-137.70692443847656 -197.93600463867188,-57.16400146484375 -197.93600463867188,-57.16400146484375 C-197.93600463867188,-57.16400146484375 0,40.462032318115234 0,40.462032318115234 C0,40.462032318115234 197.93600463867188,-57.16400146484375 197.93600463867188,-57.16400146484375 C197.93600463867188,-57.16400146484375 0,-137.70692443847656 0,-137.70692443847656z"/></g><g opacity="1" transform="matrix(1,0,0,1,0,0)"><path fill="rgb(255,217,23)" fill-opacity="1" d=" M-191.31100463867188,-7.289000034332275 C-191.31100463867188,-7.289000034332275 -197.93600463867188,-57.16400146484375 -197.93600463867188,-57.16400146484375 C-197.93600463867188,-57.16400146484375 0,40.462032318115234 0,40.462032318115234 C0,40.462032318115234 0,92.40091705322266 0,92.40091705322266 C0,92.40091705322266 -191.31100463867188,-7.289000034332275 -191.31100463867188,-7.289000034332275z"/><path stroke-linecap="round" stroke-linejoin="round" fill-opacity="0" stroke="rgb(234,130,6)" stroke-opacity="1" stroke-width="9" d=" M-191.31100463867188,-7.289000034332275 C-191.31100463867188,-7.289000034332275 -197.93600463867188,-57.16400146484375 -197.93600463867188,-57.16400146484375 C-197.93600463867188,-57.16400146484375 0,40.462032318115234 0,40.462032318115234 C0,40.462032318115234 0,92.40091705322266 0,92.40091705322266 C0,92.40091705322266 -191.31100463867188,-7.289000034332275 -191.31100463867188,-7.289000034332275z"/></g><g opacity="1" transform="matrix(1,0,0,1,0,0)"><path fill="rgb(255,181,34)" fill-opacity="1" d=" M191.11500549316406,-4.625999927520752 C191.11500549316406,-4.625999927520752 197.93600463867188,-57.16400146484375 197.93600463867188,-57.16400146484375 C197.93600463867188,-57.16400146484375 0,40.462032318115234 0,40.462032318115234 C0,40.462032318115234 0,92.40091705322266 0,92.40091705322266 C0,92.40091705322266 191.11500549316406,-4.625999927520752 191.11500549316406,-4.625999927520752z"/><path stroke-linecap="round" stroke-linejoin="round" fill-opacity="0" stroke="rgb(234,130,6)" stroke-opacity="1" stroke-width="9" d=" M191.11500549316406,-4.625999927520752 C191.11500549316406,-4.625999927520752 197.93600463867188,-57.16400146484375 197.93600463867188,-57.16400146484375 C197.93600463867188,-57.16400146484375 0,40.462032318115234 0,40.462032318115234 C0,40.462032318115234 0,92.40091705322266 0,92.40091705322266 C0,92.40091705322266 191.11500549316406,-4.625999927520752 191.11500549316406,-4.625999927520752z"/></g></g><g opacity="1" transform="matrix(1,0,0,1,0,0)"><g opacity="1" transform="matrix(1,0,0,1,0,0)"><g opacity="1" transform="matrix(1,0,0,1,0,0)"><path fill="rgb(175,8,8)" fill-opacity="1" d=" M-123.46466064453125,-20.085800170898438 C-123.46466064453125,-20.085800170898438 70.54100036621094,-97.0999984741211 70.54100036621094,-97.0999984741211 C70.54100036621094,-97.0999984741211 117.53099822998047,-82.69999694824219 117.53099822998047,-82.69999694824219 C117.53099822998047,-82.69999694824219 -75.04326629638672,3.6372642517089844 -75.04326629638672,3.6372642517089844 C-75.04326629638672,3.6372642517089844 -123.46466064453125,-20.085800170898438 -123.46466064453125,-20.085800170898438z"/><path stroke-linecap="round" stroke-linejoin="round" fill-opacity="0" stroke="rgb(153,0,0)" stroke-opacity="1" stroke-width="9" d=" M-123.46466064453125,-20.085800170898438 C-123.46466064453125,-20.085800170898438 70.54100036621094,-97.0999984741211 70.54100036621094,-97.0999984741211 C70.54100036621094,-97.0999984741211 117.53099822998047,-82.69999694824219 117.53099822998047,-82.69999694824219 C117.53099822998047,-82.69999694824219 -75.04326629638672,3.6372642517089844 -75.04326629638672,3.6372642517089844 C-75.04326629638672,3.6372642517089844 -123.46466064453125,-20.085800170898438 -123.46466064453125,-20.085800170898438z"/></g><g opacity="1" transform="matrix(1,0,0,1,0,0)"><path fill="rgb(201,0,0)" fill-opacity="1" d=" M-68.55301666259766,61.8858642578125 C-68.55301666259766,61.8858642578125 -71.65803527832031,4.172264099121094 -71.65803527832031,4.172264099121094 C-71.65803527832031,4.172264099121094 -123.46466064453125,-20.085800170898438 -123.46466064453125,-20.085800170898438 C-123.46466064453125,-20.085800170898438 -119.8015365600586,34.54642105102539 -119.8015365600586,34.54642105102539 C-119.8015365600586,34.54642105102539 -68.55301666259766,61.8858642578125 -68.55301666259766,61.8858642578125z"/><path stroke-linecap="round" stroke-linejoin="round" fill-opacity="0" stroke="rgb(153,0,0)" stroke-opacity="1" stroke-width="9" d=" M-68.55301666259766,61.8858642578125 C-68.55301666259766,61.8858642578125 -71.65803527832031,4.172264099121094 -71.65803527832031,4.172264099121094 C-71.65803527832031,4.172264099121094 -123.46466064453125,-20.085800170898438 -123.46466064453125,-20.085800170898438 C-123.46466064453125,-20.085800170898438 -119.8015365600586,34.54642105102539 -119.8015365600586,34.54642105102539 C-119.8015365600586,34.54642105102539 -68.55301666259766,61.8858642578125 -68.55301666259766,61.8858642578125z"/></g></g><g opacity="1" transform="matrix(1,0,0,1,0,0)"><g opacity="1" transform="matrix(1,0,0,1,0,0)"><path fill="rgb(175,8,8)" fill-opacity="1" d=" M125.19361114501953,-21.23641014099121 C125.19361114501953,-21.23641014099121 -68.84349822998047,-109.56494903564453 -68.84349822998047,-109.56494903564453 C-68.84349822998047,-109.56494903564453 -115.82505798339844,-90.56250762939453 -115.82505798339844,-90.56250762939453 C-115.82505798339844,-90.56250762939453 67.71379852294922,6.550790786743164 67.71379852294922,6.550790786743164 C67.71379852294922,6.550790786743164 125.19361114501953,-21.23641014099121 125.19361114501953,-21.23641014099121z"/><path stroke-linecap="round" stroke-linejoin="round" fill-opacity="0" stroke="rgb(153,0,0)" stroke-opacity="1" stroke-width="9" d=" M125.19361114501953,-21.23641014099121 C125.19361114501953,-21.23641014099121 -68.84349822998047,-109.56494903564453 -68.84349822998047,-109.56494903564453 C-68.84349822998047,-109.56494903564453 -115.82505798339844,-90.56250762939453 -115.82505798339844,-90.56250762939453 C-115.82505798339844,-90.56250762939453 67.71379852294922,6.550790786743164 67.71379852294922,6.550790786743164 C67.71379852294922,6.550790786743164 125.19361114501953,-21.23641014099121 125.19361114501953,-21.23641014099121z"/></g><g opacity="1" transform="matrix(1,0,0,1,0,0)"><path fill="rgb(188,4,4)" fill-opacity="1" d=" M67.36670684814453,63.232486724853516 C67.36670684814453,63.232486724853516 68.85079956054688,8.823790550231934 68.85079956054688,8.823790550231934 C68.85079956054688,8.823790550231934 125.19361114501953,-21.23641014099121 125.19361114501953,-21.23641014099121 C125.19361114501953,-21.23641014099121 121.13789367675781,35.65620040893555 121.13789367675781,35.65620040893555 C121.13789367675781,35.65620040893555 67.36670684814453,63.232486724853516 67.36670684814453,63.232486724853516z"/><path stroke-linecap="round" stroke-linejoin="round" fill-opacity="0" stroke="rgb(153,0,0)" stroke-opacity="1" stroke-width="9" d=" M67.36670684814453,63.232486724853516 C67.36670684814453,63.232486724853516 68.85079956054688,8.823790550231934 68.85079956054688,8.823790550231934 C68.85079956054688,8.823790550231934 125.19361114501953,-21.23641014099121 125.19361114501953,-21.23641014099121 C125.19361114501953,-21.23641014099121 121.13789367675781,35.65620040893555 121.13789367675781,35.65620040893555 C121.13789367675781,35.65620040893555 67.36670684814453,63.232486724853516 67.36670684814453,63.232486724853516z"/></g></g></g></g><g transform="matrix(1,0,0,1,256,278.10540771484375)" opacity="1" style="display: block;"><g opacity="1" transform="matrix(0.9705802202224731,0.24077792465686798,-0.24077792465686798,0.9705802202224731,-14.439377784729004,-3.7349166870117188)"><g opacity="1" transform="matrix(1,0,0,1,0,0)"><path fill="rgb(175,0,0)" fill-opacity="1" d=" M16.583999633789062,-50.59199905395508 C16.583999633789062,-50.59199905395508 81.98343658447266,-58.090240478515625 123.56143188476562,-81.09123992919922 C184.8694305419922,-115.00724029541016 184.6996307373047,-137.04470825195312 184.6996307373047,-137.04470825195312 C184.6996307373047,-137.04470825195312 160.04164123535156,-174.1398468017578 135.92520141601562,-194.4880828857422 C135.92520141601562,-194.4880828857422 122.6446533203125,-157.59466552734375 75.57266998291016,-125.72726440429688 C25.86099624633789,-92.26940155029297 1.034999966621399,-59.292999267578125 1.034999966621399,-59.292999267578125 C1.034999966621399,-59.292999267578125 16.583999633789062,-50.59199905395508 16.583999633789062,-50.59199905395508z"/><path stroke-linecap="round" stroke-linejoin="round" fill-opacity="0" stroke="rgb(153,0,0)" stroke-opacity="1" stroke-width="9" d=" M16.583999633789062,-50.59199905395508 C16.583999633789062,-50.59199905395508 81.98343658447266,-58.090240478515625 123.56143188476562,-81.09123992919922 C184.8694305419922,-115.00724029541016 184.6996307373047,-137.04470825195312 184.6996307373047,-137.04470825195312 C184.6996307373047,-137.04470825195312 160.04164123535156,-174.1398468017578 135.92520141601562,-194.4880828857422 C135.92520141601562,-194.4880828857422 122.6446533203125,-157.59466552734375 75.57266998291016,-125.72726440429688 C25.86099624633789,-92.26940155029297 1.034999966621399,-59.292999267578125 1.034999966621399,-59.292999267578125 C1.034999966621399,-59.292999267578125 16.583999633789062,-50.59199905395508 16.583999633789062,-50.59199905395508z"/></g><g opacity="1" transform="matrix(1,0,0,1,0,0)"><path fill="rgb(255,11,11)" fill-opacity="1" d=" M1.034999966621399,-59.292999267578125 C1.034999966621399,-59.292999267578125 -7.213739395141602,-128.7751007080078 34.67042922973633,-167.3445587158203 C89.37006378173828,-216.6756134033203 136.24729919433594,-195.73126220703125 136.24729919433594,-195.73126220703125 C136.24729919433594,-195.73126220703125 171.5535125732422,-166.9582977294922 184.85833740234375,-137.3717498779297 C184.85833740234375,-137.3717498779297 114.68348693847656,-155.28990173339844 64.15831756591797,-114.02780151367188 C14.377237319946289,-73.3252944946289 10.380000114440918,-51.07600021362305 10.380000114440918,-51.07600021362305 C10.380000114440918,-51.07600021362305 1.034999966621399,-59.292999267578125 1.034999966621399,-59.292999267578125z"/><path stroke-linecap="round" stroke-linejoin="round" fill-opacity="0" stroke="rgb(153,0,0)" stroke-opacity="1" stroke-width="9" d=" M1.034999966621399,-59.292999267578125 C1.034999966621399,-59.292999267578125 -7.213739395141602,-128.7751007080078 34.67042922973633,-167.3445587158203 C89.37006378173828,-216.6756134033203 136.24729919433594,-195.73126220703125 136.24729919433594,-195.73126220703125 C136.24729919433594,-195.73126220703125 171.5535125732422,-166.9582977294922 184.85833740234375,-137.3717498779297 C184.85833740234375,-137.3717498779297 114.68348693847656,-155.28990173339844 64.15831756591797,-114.02780151367188 C14.377237319946289,-73.3252944946289 10.380000114440918,-51.07600021362305 10.380000114440918,-51.07600021362305 C10.380000114440918,-51.07600021362305 1.034999966621399,-59.292999267578125 1.034999966621399,-59.292999267578125z"/></g><g opacity="1" transform="matrix(1,0,0,1,0,0)"><path fill="url(#__lottie_element_25)" fill-opacity="1" d=" M22.12555694580078,-132.3164825439453 C22.12555694580078,-132.3164825439453 33.9918212890625,-160.825439453125 61.717864990234375,-177.09085083007812 C92.4648208618164,-195.09886169433594 105.24268341064453,-189.5027618408203 105.24268341064453,-189.5027618408203 C105.24268341064453,-189.5027618408203 111.48323822021484,-172.10765075683594 136.8753662109375,-149.27468872070312 C136.8753662109375,-149.27468872070312 90.42810821533203,-143.8592987060547 67.76016235351562,-127.10263061523438 C45.09221649169922,-110.3459701538086 38.78723907470703,-104.2337875366211 38.78723907470703,-104.2337875366211 C38.78723907470703,-104.2337875366211 39.89699172973633,-131.91900634765625 22.12555694580078,-132.3164825439453z"/></g></g><g opacity="1" transform="matrix(0.9705802202224731,-0.24077792465686798,0.24077792465686798,0.9705802202224731,16.866046905517578,-4.396514892578125)"><g opacity="1" transform="matrix(1,0,0,1,0,0)"><path fill="rgb(175,0,0)" fill-opacity="1" d=" M-28.724000930786133,-77.83899688720703 C-28.724000930786133,-77.83899688720703 -4.781000137329102,-64.73899841308594 -4.781000137329102,-64.73899841308594 C-4.781000137329102,-64.73899841308594 -4.482947826385498,-100.73917388916016 -30.17082977294922,-139.2231903076172 C-57.00849151611328,-179.18923950195312 -127.17316436767578,-205.22532653808594 -141.74754333496094,-179.1211700439453 C-141.74754333496094,-179.1211700439453 -153.4515838623047,-136.450927734375 -179.12185668945312,-109.56232452392578 C-179.12185668945312,-109.56232452392578 -146.775146484375,-146.0519256591797 -101.1756820678711,-131.6125030517578 C-62.154022216796875,-119.39656829833984 -28.724000930786133,-77.83899688720703 -28.724000930786133,-77.83899688720703z"/><path stroke-linecap="round" stroke-linejoin="round" fill-opacity="0" stroke="rgb(153,0,0)" stroke-opacity="1" stroke-width="9" d=" M-28.724000930786133,-77.83899688720703 C-28.724000930786133,-77.83899688720703 -4.781000137329102,-64.73899841308594 -4.781000137329102,-64.73899841308594 C-4.781000137329102,-64.73899841308594 -4.482947826385498,-100.73917388916016 -30.17082977294922,-139.2231903076172 C-57.00849151611328,-179.18923950195312 -127.17316436767578,-205.22532653808594 -141.74754333496094,-179.1211700439453 C-141.74754333496094,-179.1211700439453 -153.4515838623047,-136.450927734375 -179.12185668945312,-109.56232452392578 C-179.12185668945312,-109.56232452392578 -146.775146484375,-146.0519256591797 -101.1756820678711,-131.6125030517578 C-62.154022216796875,-119.39656829833984 -28.724000930786133,-77.83899688720703 -28.724000930786133,-77.83899688720703z"/></g><g opacity="1" transform="matrix(1,0,0,1,0,0)"><path fill="rgb(255,11,11)" fill-opacity="1" d=" M-4.781000137329102,-64.73899841308594 C-4.781000137329102,-64.73899841308594 -13.846673011779785,-77.29024505615234 -51.96898651123047,-100.1886215209961 C-93.53801727294922,-125.0490493774414 -160.5118865966797,-127.06344604492188 -141.46688842773438,-179.25144958496094 C-141.46688842773438,-179.25144958496094 -157.12391662597656,-135.7106475830078 -183.01690673828125,-107.77165222167969 C-183.01690673828125,-107.77165222167969 -164.70335388183594,-68.566650390625 -119.08935546875,-61.26764678955078 C-73.47535705566406,-53.96864700317383 -54.77799987792969,-79.86900329589844 -4.781000137329102,-64.73899841308594z"/><path stroke-linecap="round" stroke-linejoin="round" fill-opacity="0" stroke="rgb(153,0,0)" stroke-opacity="1" stroke-width="9" d=" M-4.781000137329102,-64.73899841308594 C-4.781000137329102,-64.73899841308594 -13.846673011779785,-77.29024505615234 -51.96898651123047,-100.1886215209961 C-93.53801727294922,-125.0490493774414 -160.5118865966797,-127.06344604492188 -141.46688842773438,-179.25144958496094 C-141.46688842773438,-179.25144958496094 -157.12391662597656,-135.7106475830078 -183.01690673828125,-107.77165222167969 C-183.01690673828125,-107.77165222167969 -164.70335388183594,-68.566650390625 -119.08935546875,-61.26764678955078 C-73.47535705566406,-53.96864700317383 -54.77799987792969,-79.86900329589844 -4.781000137329102,-64.73899841308594z"/></g><g opacity="1" transform="matrix(1,0,0,1,0,0)"><path fill="url(#__lottie_element_26)" fill-opacity="1" d=" M-169.26898193359375,-97.84748840332031 C-169.26898193359375,-97.84748840332031 -152.05636596679688,-103.5730209350586 -139.77871704101562,-129.67454528808594 C-139.77871704101562,-129.67454528808594 -120.23457336425781,-117.58575439453125 -78.24468231201172,-104.09553527832031 C-78.24468231201172,-104.09553527832031 -100.63146209716797,-95.09536743164062 -108.03872680664062,-67.94752502441406 C-108.03872680664062,-67.94752502441406 -158.8765869140625,-72.49230194091797 -169.26898193359375,-97.84748840332031z"/></g></g><g opacity="1" transform="matrix(1,0,0,1,0,0)"><g opacity="1" transform="matrix(0.9926177859306335,0.12128430604934692,-0.12128430604934692,0.9926177859306335,-7.203237533569336,-1.6557731628417969)"><path fill="rgb(255,11,11)" fill-opacity="1" d=" M5.52400016784668,-54.275001525878906 C5.52400016784668,-54.275001525878906 37.15410614013672,-41.07107162475586 54.050106048583984,-19.228073120117188 C70.94610595703125,2.6149277687072754 92.08629608154297,28.682228088378906 92.08629608154297,28.682228088378906 C92.08629608154297,28.682228088378906 114.85823822021484,9.32286548614502 130.71627807617188,-9.465230941772461 C130.71627807617188,-9.465230941772461 113.6829605102539,-28.251541137695312 92.50275421142578,-42.038841247558594 C63.84852981567383,-60.783756256103516 13.440999984741211,-67.89700317382812 -4.551000118255615,-60.198001861572266 C-4.551000118255615,-60.198001861572266 5.52400016784668,-54.275001525878906 5.52400016784668,-54.275001525878906z"/><path stroke-linecap="round" stroke-linejoin="round" fill-opacity="0" stroke="rgb(153,0,0)" stroke-opacity="1" stroke-width="9" d=" M5.52400016784668,-54.275001525878906 C5.52400016784668,-54.275001525878906 37.15410614013672,-41.07107162475586 54.050106048583984,-19.228073120117188 C70.94610595703125,2.6149277687072754 92.08629608154297,28.682228088378906 92.08629608154297,28.682228088378906 C92.08629608154297,28.682228088378906 114.85823822021484,9.32286548614502 130.71627807617188,-9.465230941772461 C130.71627807617188,-9.465230941772461 113.6829605102539,-28.251541137695312 92.50275421142578,-42.038841247558594 C63.84852981567383,-60.783756256103516 13.440999984741211,-67.89700317382812 -4.551000118255615,-60.198001861572266 C-4.551000118255615,-60.198001861572266 5.52400016784668,-54.275001525878906 5.52400016784668,-54.275001525878906z"/></g><g opacity="1" transform="matrix(0.9926177859306335,-0.12128430604934692,0.12128430604934692,0.9926177859306335,7.726869583129883,-2.0528488159179688)"><path fill="rgb(255,11,11)" fill-opacity="1" d=" M0.7379999756813049,-61.76100158691406 C0.7379999756813049,-61.76100158691406 -33.03761672973633,-48.215633392333984 -54.87013626098633,-22.06482696533203 C-74.28592681884766,1.3667241334915161 -67.21047973632812,21.499008178710938 -67.21047973632812,21.499008178710938 C-67.21047973632812,21.499008178710938 -76.7330093383789,12.712240219116211 -104.01422882080078,8.156270980834961 C-135.58680725097656,2.7976396083831787 -147.0069580078125,3.581080675125122 -147.0069580078125,3.581080675125122 C-147.0069580078125,3.581080675125122 -129.22271728515625,-31.915430068969727 -85.7317123413086,-51.064430236816406 C-42.2407112121582,-70.21343231201172 -7.861999988555908,-69.8280029296875 -7.861999988555908,-69.8280029296875 C-7.861999988555908,-69.8280029296875 0.7379999756813049,-61.76100158691406 0.7379999756813049,-61.76100158691406z"/><path stroke-linecap="round" stroke-linejoin="round" fill-opacity="0" stroke="rgb(153,0,0)" stroke-opacity="1" stroke-width="9" d=" M0.7379999756813049,-61.76100158691406 C0.7379999756813049,-61.76100158691406 -33.03761672973633,-48.215633392333984 -54.87013626098633,-22.06482696533203 C-74.28592681884766,1.3667241334915161 -67.21047973632812,21.499008178710938 -67.21047973632812,21.499008178710938 C-67.21047973632812,21.499008178710938 -76.7330093383789,12.712240219116211 -104.01422882080078,8.156270980834961 C-135.58680725097656,2.7976396083831787 -147.0069580078125,3.581080675125122 -147.0069580078125,3.581080675125122 C-147.0069580078125,3.581080675125122 -129.22271728515625,-31.915430068969727 -85.7317123413086,-51.064430236816406 C-42.2407112121582,-70.21343231201172 -7.861999988555908,-69.8280029296875 -7.861999988555908,-69.8280029296875 C-7.861999988555908,-69.8280029296875 0.7379999756813049,-61.76100158691406 0.7379999756813049,-61.76100158691406z"/></g><g opacity="1" transform="matrix(1,0,0,1,0,0)"><path fill="rgb(255,11,11)" fill-opacity="1" d=" M-2.75600004196167,-85.38500213623047 C-2.75600004196167,-85.38500213623047 -7.418000221252441,-68.27300262451172 16.583999633789062,-50.59199905395508 C16.583999633789062,-50.59199905395508 11.131999969482422,-39.367000579833984 -13.605999946594238,-52.94499969482422 C-13.605999946594238,-52.94499969482422 -19.900999069213867,-57.59600067138672 -15.807999610900879,-78.08000183105469 C-15.807999610900879,-78.08000183105469 -15.355999946594238,-83.87100219726562 -2.75600004196167,-85.38500213623047z"/><path stroke-linecap="round" stroke-linejoin="round" fill-opacity="0" stroke="rgb(153,0,0)" stroke-opacity="1" stroke-width="9" d=" M-2.75600004196167,-85.38500213623047 C-2.75600004196167,-85.38500213623047 -7.418000221252441,-68.27300262451172 16.583999633789062,-50.59199905395508 C16.583999633789062,-50.59199905395508 11.131999969482422,-39.367000579833984 -13.605999946594238,-52.94499969482422 C-13.605999946594238,-52.94499969482422 -19.900999069213867,-57.59600067138672 -15.807999610900879,-78.08000183105469 C-15.807999610900879,-78.08000183105469 -15.355999946594238,-83.87100219726562 -2.75600004196167,-85.38500213623047z"/></g></g></g></g></svg>