<svg xmlns="http://www.w3.org/2000/svg" width="40" height="40" viewBox="0 0 40 40" fill="none">
    <div xmlns="" id="in-page-channel-node-id" data-channel-name="in_page_channel_0-Adod"/>
    <rect width="40" height="40" rx="10" fill="#7C7C7C"/>
    <rect width="40" height="40" rx="10" fill="url(#paint0_linear_1_5001)"/>
    <path d="M26.9849 22.5162L31.597 18.5478C32.373 17.881 31.9602 16.6087 30.9403 16.5251L24.878 16.0279C24.6675 16.0108 24.4658 15.936 24.2949 15.8118C24.1241 15.6876 23.9908 15.5186 23.9095 15.3236L21.5629 9.70854C21.1683 8.76382 19.8319 8.76382 19.4373 9.70854L17.0906 15.3236C17.0094 15.5186 16.8761 15.6876 16.7053 15.8118C16.5344 15.936 16.3327 16.0108 16.1222 16.0279L10.0593 16.5251C9.04003 16.6087 8.62724 17.881 9.40258 18.5478L12.2037 20.958C12.462 21.1807 12.7634 21.3477 13.089 21.4486C13.4146 21.5496 13.7576 21.5824 14.0964 21.5449L20.3681 20.8575C20.8838 20.8012 21.0975 21.4994 20.6387 21.7417L15.0091 24.7151C14.6949 24.8807 14.4199 25.1118 14.2026 25.3928C13.9853 25.6739 13.8308 25.9983 13.7496 26.3442L12.9845 29.578C12.7491 30.5736 13.8307 31.3603 14.7041 30.8286L19.9015 27.6656C20.2689 27.4415 20.7307 27.4415 21.0987 27.6656L26.2955 30.8286C27.1695 31.3603 28.2505 30.5742 28.0157 29.578L26.6151 23.6553C26.5663 23.4498 26.5749 23.2348 26.6402 23.0338C26.7054 22.8329 26.8247 22.6538 26.9849 22.5162Z"
          fill="white"/>
    <defs>
        <linearGradient id="paint0_linear_1_5001" x1="0" y1="20" x2="40" y2="20" gradientUnits="userSpaceOnUse">
            <stop stop-color="#957EED"/>
            <stop offset="1" stop-color="#E8C3FB"/>
        </linearGradient>
    </defs>
</svg>