<?xml version="1.0" encoding="utf-8"?>
<!-- Generator: Adobe Illustrator 27.5.0, SVG Export Plug-In . SVG Version: 6.00 Build 0)  -->
<svg version="1.1" id="Layer_1" xmlns="http://www.w3.org/2000/svg" xmlns:xlink="http://www.w3.org/1999/xlink" x="0px" y="0px"
	 viewBox="0 0 1000 1000" style="enable-background:new 0 0 1000 1000;" xml:space="preserve">
<rect style="fill:NONE;" width="1000" height="1000"/>
<g>
	<g>
		<g>
			<g>
				<path style="fill:WHITE" d="M341.237,530.304c29.153-7.208,47.754,6.816,57.736,22.657c9.09,14.426,22.806,25.451,39.229,30.04
					c9.537,2.665,18.593,9.227,22.567,23.61c6.907,24.997-0.299,52.059-29.428,72.675c-13.572,9.606-39.907-5.543-63.788,0.404
					c-24.155,6.015-37.122,31.57-54.539,30.261c-36.758-2.762-57.687-21.15-59.329-52.275c-1.049-19.885,6.63-31.894,15.666-39.12
					c12.851-10.275,21.57-25.029,24.114-41.285C296.267,559.374,307.316,538.69,341.237,530.304z"/>
				
					<ellipse style="fill:WHITE" transform="matrix(0.9913 -0.1313 0.1313 0.9913 -55.6533 51.1375)" cx="359.901" cy="447.535" rx="38.363" ry="52.749"/>
				<ellipse style="fill:WHITE" transform="matrix(0.9913 -0.1313 0.1313 0.9913 -62.5824 63.144)" cx="447.47" cy="506.075" rx="33.132" ry="45.556"/>
				
					<ellipse style="fill:WHITE" transform="matrix(0.9279 -0.3728 0.3728 0.9279 -158.4213 132.3681)" cx="263.067" cy="475.83" rx="39.501" ry="54.313"/>
				
					<ellipse style="fill:WHITE" transform="matrix(0.9279 -0.3728 0.3728 0.9279 -197.2079 120.9864)" cx="214.243" cy="570.433" rx="34.279" ry="47.133"/>
			</g>
		</g>
		<g>
			<g>
				<path style="fill:WHITE" d="M658.763,425.307c-29.153-7.208-47.754,6.816-57.736,22.657c-9.09,14.426-22.806,25.451-39.229,30.04
					c-9.537,2.665-18.593,9.227-22.567,23.61c-6.907,24.997,0.299,52.059,29.428,72.675c13.572,9.606,39.907-5.543,63.788,0.404
					c24.155,6.015,37.122,31.57,54.539,30.261c36.758-2.762,57.687-21.15,59.329-52.275c1.049-19.885-6.63-31.894-15.666-39.12
					c-12.851-10.275-21.57-25.029-24.114-41.285C703.733,454.377,692.684,433.693,658.763,425.307z"/>

					<ellipse style="fill:WHITE" transform="matrix(0.1313 -0.9913 0.9913 0.1313 216.4701 932.1118)" cx="640.099" cy="342.538" rx="52.749" ry="38.363"/>

					<ellipse style="fill:WHITE" transform="matrix(0.1313 -0.9913 0.9913 0.1313 82.3675 896.1537)" cx="552.53" cy="401.078" rx="45.556" ry="33.132"/>

					<ellipse style="fill:WHITE" transform="matrix(0.3728 -0.9279 0.9279 0.3728 118.1113 916.402)" cx="736.933" cy="370.832" rx="54.313" ry="39.501"/>

					<ellipse style="fill:WHITE" transform="matrix(0.3728 -0.9279 0.9279 0.3728 60.9503 1021.0432)" cx="785.757" cy="465.436" rx="47.133" ry="34.279"/>
			</g>
		</g>
	</g>
	<path style="fill:BLACK;" d="M372.873,577.843c-15.803,3.337-19.771,22.049-20.543,26.928
		c-3.283-3.689-16.726-17.299-31.83-11.575c-17.398,6.593-12.992,27.649,5.731,41.05c18.723,13.4,40.707,20.36,40.707,20.36
		s14.748-17.727,23.273-39.115S391.077,574,372.873,577.843z"/>
	<path style="fill:BLACK;" d="M628.338,467.65c15.803,3.337,19.771,22.049,20.543,26.928c3.283-3.689,16.726-17.299,31.83-11.575
		c17.398,6.593,12.992,27.649-5.731,41.05c-18.723,13.4-40.707,20.36-40.707,20.36s-14.748-17.727-23.273-39.115
		S610.134,463.807,628.338,467.65z"/>
</g>
</svg>
